# xmcd CD database file
#
# Track frame offsets:
#	150
#	18479
#	35145
#	59555
#	74425
#	86182
#	97010
#	114274
#	128852
#
# Disc length: 2118 seconds
#
# Revision: 0
# Processed by: cddbd v1.5.1PL0 Copyright (c) Steve Scherf et al.
# Submitted via: CDex 1.51
#
DISCID=82084409
DTITLE=Mother Blue - Home Brew
DYEAR=2001
DGENRE=Blues
TTITLE0=Crossroads
TTITLE1=Little by Little
TTITLE2=A Quitter never Wins
TTITLE3=Walkin' Blues
TTITLE4=Up the Line
TTITLE5=Loaded
TTITLE6=Walkin' the Dog
TTITLE7=Why Get Up
TTITLE8=Whippin' Post
EXTD=YEAR: 2001
EXTT0=
EXTT1=
EXTT2=
EXTT3=
EXTT4=
EXTT5=
EXTT6=
EXTT7=
EXTT8=
PLAYORDER=
